<?xml version="1.0" encoding="UTF-8"?>
<svg xmlns="http://www.w3.org/2000/svg" id="Layer_1" data-name="Layer 1" viewBox="0 0 24 24">
  <path   d="M20.722,24c-.256,0-.512-.098-.707-.293-.391-.391-.391-1.023,0-1.414,1.28-1.28,1.985-2.982,1.985-4.793s-.705-3.513-1.985-4.793c-.391-.391-.391-1.023,0-1.414s1.023-.391,1.414,0c1.658,1.657,2.571,3.862,2.571,6.207s-.913,4.55-2.571,6.207c-.195,.195-.451,.293-.707,.293Zm-2.135-3.093c1.879-1.879,1.879-4.936,0-6.814-.391-.391-1.023-.391-1.414,0s-.391,1.023,0,1.414c1.099,1.099,1.099,2.888,0,3.986-.391,.391-.391,1.023,0,1.414,.195,.195,.451,.293,.707,.293s.512-.098,.707-.293Zm-10.587,.093h.494c2.499,0,4.63-1.868,4.957-4.345l.219-1.655h.33c1.299,0,2-1.03,2-2,0-1.42-2.932-7.015-4.2-8.581C9.363,1.164,5.497-.449,1.452,.106c-.219,.029-.435,.066-.649,.109-.467,.094-.803,.504-.803,.98V23c0,.553,.448,1,1,1H5c1.654,0,3-1.346,3-3Z"/>
</svg>
