<svg id="visual" viewBox="0 0 900 600" width="900" height="600" xmlns="http://www.w3.org/2000/svg" xmlns:xlink="http://www.w3.org/1999/xlink" version="1.1"><path d="M0 199L21.5 192C43 185 86 171 128.8 166C171.7 161 214.3 165 257.2 172C300 179 343 189 385.8 194C428.7 199 471.3 199 514.2 196C557 193 600 187 642.8 184C685.7 181 728.3 181 771.2 185C814 189 857 197 878.5 201L900 205L900 0L878.5 0C857 0 814 0 771.2 0C728.3 0 685.7 0 642.8 0C600 0 557 0 514.2 0C471.3 0 428.7 0 385.8 0C343 0 300 0 257.2 0C214.3 0 171.7 0 128.8 0C86 0 43 0 21.5 0L0 0Z" fill="#0066ff"></path><path d="M0 283L21.5 277C43 271 86 259 128.8 258C171.7 257 214.3 267 257.2 273C300 279 343 281 385.8 283C428.7 285 471.3 287 514.2 286C557 285 600 281 642.8 278C685.7 275 728.3 273 771.2 276C814 279 857 287 878.5 291L900 295L900 203L878.5 199C857 195 814 187 771.2 183C728.3 179 685.7 179 642.8 182C600 185 557 191 514.2 194C471.3 197 428.7 197 385.8 192C343 187 300 177 257.2 170C214.3 163 171.7 159 128.8 164C86 169 43 183 21.5 190L0 197Z" fill="#0b53e4"></path><path d="M0 367L21.5 361C43 355 86 343 128.8 343C171.7 343 214.3 355 257.2 362C300 369 343 371 385.8 371C428.7 371 471.3 369 514.2 365C557 361 600 355 642.8 350C685.7 345 728.3 341 771.2 347C814 353 857 369 878.5 377L900 385L900 293L878.5 289C857 285 814 277 771.2 274C728.3 271 685.7 273 642.8 276C600 279 557 283 514.2 284C471.3 285 428.7 283 385.8 281C343 279 300 277 257.2 271C214.3 265 171.7 255 128.8 256C86 257 43 269 21.5 275L0 281Z" fill="#0c40ca"></path><path d="M0 451L21.5 442C43 433 86 415 128.8 412C171.7 409 214.3 421 257.2 431C300 441 343 449 385.8 449C428.7 449 471.3 441 514.2 435C557 429 600 425 642.8 423C685.7 421 728.3 421 771.2 428C814 435 857 449 878.5 456L900 463L900 383L878.5 375C857 367 814 351 771.2 345C728.3 339 685.7 343 642.8 348C600 353 557 359 514.2 363C471.3 367 428.7 369 385.8 369C343 369 300 367 257.2 360C214.3 353 171.7 341 128.8 341C86 341 43 353 21.5 359L0 365Z" fill="#082eb1"></path><path d="M0 601L21.5 601C43 601 86 601 128.8 601C171.7 601 214.3 601 257.2 601C300 601 343 601 385.8 601C428.7 601 471.3 601 514.2 601C557 601 600 601 642.8 601C685.7 601 728.3 601 771.2 601C814 601 857 601 878.5 601L900 601L900 461L878.5 454C857 447 814 433 771.2 426C728.3 419 685.7 419 642.8 421C600 423 557 427 514.2 433C471.3 439 428.7 447 385.8 447C343 447 300 439 257.2 429C214.3 419 171.7 407 128.8 410C86 413 43 431 21.5 440L0 449Z" fill="#001b98"></path></svg>