<?xml version="1.0" encoding="iso-8859-1"?>
<!-- Uploaded to: SVG Repo, www.svgrepo.com, Generator: SVG Repo Mixer Tools -->
<svg height="800px" width="800px" version="1.1" id="Layer_1" xmlns="http://www.w3.org/2000/svg" xmlns:xlink="http://www.w3.org/1999/xlink"
	 viewBox="0 0 512 512" xml:space="preserve">
<path style="fill:#C9D2D9;" d="M389.565,200.348h-267.13c-9.217,0-16.696-7.473-16.696-16.696v-33.391
	C105.739,67.408,173.142,0,256,0s150.261,67.408,150.261,150.261v33.391C406.261,192.875,398.782,200.348,389.565,200.348z
	 M139.13,166.957H372.87v-16.696c0-64.441-52.424-116.87-116.87-116.87S139.13,85.82,139.13,150.261V166.957z"/>
<path style="fill:#B7C4CC;" d="M372.87,150.261v16.696H256v33.391h133.565c9.217,0,16.696-7.473,16.696-16.696v-33.391
	C406.261,67.408,338.858,0,256,0v33.391C320.445,33.391,372.87,85.82,372.87,150.261z"/>
<path style="fill:#EDF0F2;" d="M356.174,512H155.826c-46.032,0-83.478-37.446-83.478-83.478V250.435
	c0-9.223,7.479-16.696,16.696-16.696h333.913c9.217,0,16.696,7.473,16.696,16.696v178.087C439.652,474.554,402.206,512,356.174,512z
	"/>
<path style="fill:#DAE1E6;" d="M439.652,428.522V250.435c0-9.223-7.479-16.696-16.696-16.696H256V512h100.174
	C402.206,512,439.652,474.554,439.652,428.522z"/>
<path style="fill:#C9D2D9;" d="M439.652,267.13H72.348v-83.478c0-9.22,7.475-16.696,16.696-16.696h333.913
	c9.22,0,16.696,7.475,16.696,16.696V267.13z"/>
<path style="fill:#B7C4CC;" d="M439.652,183.652c0-9.22-7.475-16.696-16.696-16.696H256V267.13h183.652V183.652"/>
<path style="fill:#EDF0F2;" d="M456.348,200.348H55.652c-9.217,0-16.696-7.473-16.696-16.696s7.479-16.696,16.696-16.696h400.696
	c9.217,0,16.696,7.473,16.696,16.696S465.565,200.348,456.348,200.348z"/>
<path style="fill:#DAE1E6;" d="M456.348,166.957H256v33.391h200.348c9.217,0,16.696-7.473,16.696-16.696
	S465.565,166.957,456.348,166.957z"/>
<path style="fill:#88CC2A;" d="M167.521,400.452c-26.021-2.537-45.086-25.927-45.086-52.072V166.957h232.614l0.908,150.076
	c0.087,13.38-5.077,26.005-14.522,35.516c-10.805,10.873-25.697,16.162-41.238,14.433C274.603,364.133,256,341.06,256,315.309
	v-30.421c0-9.178-6.945-17.509-16.12-17.752c-9.577-0.253-17.271,7.288-17.271,16.587v66.886
	C222.609,379.878,197.377,403.361,167.521,400.452z"/>
<path style="fill:#7FB335;" d="M256,166.957v117.931v30.421c0,25.75,18.603,48.825,44.196,51.673
	c15.543,1.73,30.435-3.56,41.239-14.433c9.445-9.511,14.609-22.136,14.522-35.516l-0.908-150.076H256z"/>
</svg>
