<svg id="visual" viewBox="0 0 900 600" width="900" height="600" xmlns="http://www.w3.org/2000/svg" xmlns:xlink="http://www.w3.org/1999/xlink" version="1.1"><path d="M0 103L82 103L82 73L164 73L164 157L245 157L245 91L327 91L327 169L409 169L409 127L491 127L491 157L573 157L573 91L655 91L655 91L736 91L736 55L818 55L818 139L900 139L900 121L900 0L900 0L818 0L818 0L736 0L736 0L655 0L655 0L573 0L573 0L491 0L491 0L409 0L409 0L327 0L327 0L245 0L245 0L164 0L164 0L82 0L82 0L0 0Z" fill="#e2ddff"></path><path d="M0 181L82 181L82 109L164 109L164 193L245 193L245 193L327 193L327 211L409 211L409 175L491 175L491 253L573 253L573 193L655 193L655 175L736 175L736 157L818 157L818 235L900 235L900 205L900 119L900 137L818 137L818 53L736 53L736 89L655 89L655 89L573 89L573 155L491 155L491 125L409 125L409 167L327 167L327 89L245 89L245 155L164 155L164 71L82 71L82 101L0 101Z" fill="#beb1ef"></path><path d="M0 301L82 301L82 313L164 313L164 373L245 373L245 385L327 385L327 367L409 367L409 373L491 373L491 427L573 427L573 313L655 313L655 313L736 313L736 319L818 319L818 313L900 313L900 427L900 203L900 233L818 233L818 155L736 155L736 173L655 173L655 191L573 191L573 251L491 251L491 173L409 173L409 209L327 209L327 191L245 191L245 191L164 191L164 107L82 107L82 179L0 179Z" fill="#9d86dc"></path><path d="M0 367L82 367L82 403L164 403L164 475L245 475L245 475L327 475L327 409L409 409L409 493L491 493L491 493L573 493L573 403L655 403L655 427L736 427L736 415L818 415L818 391L900 391L900 505L900 425L900 311L818 311L818 317L736 317L736 311L655 311L655 311L573 311L573 425L491 425L491 371L409 371L409 365L327 365L327 383L245 383L245 371L164 371L164 311L82 311L82 299L0 299Z" fill="#7e5ac8"></path><path d="M0 601L82 601L82 601L164 601L164 601L245 601L245 601L327 601L327 601L409 601L409 601L491 601L491 601L573 601L573 601L655 601L655 601L736 601L736 601L818 601L818 601L900 601L900 601L900 503L900 389L818 389L818 413L736 413L736 425L655 425L655 401L573 401L573 491L491 491L491 491L409 491L409 407L327 407L327 473L245 473L245 473L164 473L164 401L82 401L82 365L0 365Z" fill="#602ab1"></path></svg>