<svg id="visual" viewBox="0 0 900 600" width="900" height="600" xmlns="http://www.w3.org/2000/svg" xmlns:xlink="http://www.w3.org/1999/xlink" version="1.1"><path d="M0 85L13.7 101C27.3 117 54.7 149 82 156C109.3 163 136.7 145 163.8 157C191 169 218 211 245.2 209C272.3 207 299.7 161 327 135C354.3 109 381.7 103 409 121C436.3 139 463.7 181 491 194C518.3 207 545.7 191 573 187C600.3 183 627.7 191 654.8 197C682 203 709 207 736.2 204C763.3 201 790.7 191 818 176C845.3 161 872.7 141 886.3 131L900 121L900 0L886.3 0C872.7 0 845.3 0 818 0C790.7 0 763.3 0 736.2 0C709 0 682 0 654.8 0C627.7 0 600.3 0 573 0C545.7 0 518.3 0 491 0C463.7 0 436.3 0 409 0C381.7 0 354.3 0 327 0C299.7 0 272.3 0 245.2 0C218 0 191 0 163.8 0C136.7 0 109.3 0 82 0C54.7 0 27.3 0 13.7 0L0 0Z" fill="#6198ff"></path><path d="M0 187L13.7 203C27.3 219 54.7 251 82 249C109.3 247 136.7 211 163.8 215C191 219 218 263 245.2 264C272.3 265 299.7 223 327 205C354.3 187 381.7 193 409 213C436.3 233 463.7 267 491 284C518.3 301 545.7 301 573 301C600.3 301 627.7 301 654.8 301C682 301 709 301 736.2 297C763.3 293 790.7 285 818 272C845.3 259 872.7 241 886.3 232L900 223L900 119L886.3 129C872.7 139 845.3 159 818 174C790.7 189 763.3 199 736.2 202C709 205 682 201 654.8 195C627.7 189 600.3 181 573 185C545.7 189 518.3 205 491 192C463.7 179 436.3 137 409 119C381.7 101 354.3 107 327 133C299.7 159 272.3 205 245.2 207C218 209 191 167 163.8 155C136.7 143 109.3 161 82 154C54.7 147 27.3 115 13.7 99L0 83Z" fill="#3c80ff"></path><path d="M0 325L13.7 329C27.3 333 54.7 341 82 345C109.3 349 136.7 349 163.8 362C191 375 218 401 245.2 385C272.3 369 299.7 311 327 294C354.3 277 381.7 301 409 319C436.3 337 463.7 349 491 357C518.3 365 545.7 369 573 368C600.3 367 627.7 361 654.8 367C682 373 709 391 736.2 392C763.3 393 790.7 377 818 356C845.3 335 872.7 309 886.3 296L900 283L900 221L886.3 230C872.7 239 845.3 257 818 270C790.7 283 763.3 291 736.2 295C709 299 682 299 654.8 299C627.7 299 600.3 299 573 299C545.7 299 518.3 299 491 282C463.7 265 436.3 231 409 211C381.7 191 354.3 185 327 203C299.7 221 272.3 263 245.2 262C218 261 191 217 163.8 213C136.7 209 109.3 245 82 247C54.7 249 27.3 217 13.7 201L0 185Z" fill="#0066ff"></path><path d="M0 385L13.7 395C27.3 405 54.7 425 82 429C109.3 433 136.7 421 163.8 427C191 433 218 457 245.2 440C272.3 423 299.7 365 327 351C354.3 337 381.7 367 409 388C436.3 409 463.7 421 491 425C518.3 429 545.7 425 573 425C600.3 425 627.7 429 654.8 441C682 453 709 473 736.2 467C763.3 461 790.7 429 818 404C845.3 379 872.7 361 886.3 352L900 343L900 281L886.3 294C872.7 307 845.3 333 818 354C790.7 375 763.3 391 736.2 390C709 389 682 371 654.8 365C627.7 359 600.3 365 573 366C545.7 367 518.3 363 491 355C463.7 347 436.3 335 409 317C381.7 299 354.3 275 327 292C299.7 309 272.3 367 245.2 383C218 399 191 373 163.8 360C136.7 347 109.3 347 82 343C54.7 339 27.3 331 13.7 327L0 323Z" fill="#0059dd"></path><path d="M0 601L13.7 601C27.3 601 54.7 601 82 601C109.3 601 136.7 601 163.8 601C191 601 218 601 245.2 601C272.3 601 299.7 601 327 601C354.3 601 381.7 601 409 601C436.3 601 463.7 601 491 601C518.3 601 545.7 601 573 601C600.3 601 627.7 601 654.8 601C682 601 709 601 736.2 601C763.3 601 790.7 601 818 601C845.3 601 872.7 601 886.3 601L900 601L900 341L886.3 350C872.7 359 845.3 377 818 402C790.7 427 763.3 459 736.2 465C709 471 682 451 654.8 439C627.7 427 600.3 423 573 423C545.7 423 518.3 427 491 423C463.7 419 436.3 407 409 386C381.7 365 354.3 335 327 349C299.7 363 272.3 421 245.2 438C218 455 191 431 163.8 425C136.7 419 109.3 431 82 427C54.7 423 27.3 403 13.7 393L0 383Z" fill="#004cbb"></path></svg>